<?xml version="1.0" encoding="utf-8"?>
<!-- Generator: Adobe Illustrator 29.5.0, SVG Export Plug-In . SVG Version: 9.03 Build 0)  -->
<svg version="1.1" id="Ebene_1" xmlns="http://www.w3.org/2000/svg" xmlns:xlink="http://www.w3.org/1999/xlink" x="0px" y="0px" width="100px" height="30px"
	 viewBox="0 0 100 30" style="enable-background:new 0 0 100 30;" xml:space="preserve">
<style type="text/css">
	.st0{fill:#478CD0;}
</style>
<path class="st0" d="M12.2,22.9v-5c0-0.2-0.2-0.4-0.4-0.4c0,0,0,0-0.1,0H5.6c-0.2,0-0.4,0.2-0.4,0.4v5H0V8.4h5.2v5.4
	c0,0.2,0.2,0.4,0.4,0.5c0,0,0,0,0,0h6.1c0.2,0,0.4-0.1,0.5-0.4c0,0,0-0.1,0-0.1V8.4h5.2v14.4H12.2z"/>
<rect x="58.1" y="8.4" class="st0" width="5.2" height="14.4"/>
<path class="st0" d="M28.3,21.3c-2.6,0-3.5-3.1-3.5-5.7c0.1-2.4,0.9-5.3,3.4-5.3s3.5,2.8,3.6,5.3C32,18.1,31,21.3,28.3,21.3
	 M28.3,7.7c-5.2,0-9.5,3.1-9.5,7.9c0,4.8,3.7,8,9.7,8c5.3,0,9.5-3.2,9.5-8C37.9,10.5,33.7,7.7,28.3,7.7"/>
<path class="st0" d="M48.5,14.9h-2.3c-1.1,0-2-0.8-2-1.9c0.1-1.1,1-1.9,2-1.9h2.3c1.1,0,1.9,0.9,2,1.9
	C50.4,14.1,49.5,14.9,48.5,14.9 M53.4,17.4c-0.1-0.1-0.1-0.2-0.1-0.3c0-0.2,0.2-0.2,0.2-0.3c1.3-1.1,2.2-2.2,2.2-3.8
	c-0.1-2.5-2.1-4.5-4.6-4.5H39.3v14.4h5.2v-3.8c0.1-0.8,0.7-1.4,1.4-1.5c0.8-0.1,1.5,0.2,2,0.8l3.1,4.5h6.2L53.4,17.4z"/>
<path class="st0" d="M74.6,20.3H72c-1.1,0-2-0.8-2-1.9c0-1.1,0.9-2,2-2h2.6c1.1,0,2,0.9,2,2C76.6,19.5,75.7,20.4,74.6,20.3 M71.8,11
	h2.4c1,0,1.9,0.8,1.9,1.8c0,0,0,0,0,0c0,1-0.9,1.8-1.9,1.8h-2.4c-1,0-1.8-0.8-1.8-1.8C69.9,11.7,70.8,10.9,71.8,11 M79.9,15.5
	c-0.1-0.1-0.1-0.2-0.1-0.3c0-0.2,0.2-0.2,0.3-0.3c0.8-0.7,1.2-1.7,1.1-2.7c0-2.1-1.8-3.8-3.9-3.8h-12v14.6h12.3c2.3,0,4.1-1.8,4.1-4
	c0,0,0,0,0,0C81.8,17.5,81.1,16.2,79.9,15.5"/>
<path class="st0" d="M92.7,17.9c0,0-0.2,0.1-0.2,0.1h-3.2c-0.1,0-0.2,0-0.2-0.1c0-0.1,0-0.1,0-0.2l1.6-4.4c0,0,0.1-0.2,0.2-0.2
	c0.1,0,0.3,0.2,0.3,0.2l1.6,4.4C92.7,17.8,92.7,17.8,92.7,17.9 M94.8,8.3H87l-5.2,14.6h5.4l0.9-2.4c0-0.1,0.1-0.2,0.1-0.2
	c0.1-0.1,0.2-0.1,0.3-0.1h4.6c0.1,0,0.3,0.1,0.4,0.1c0.1,0.1,0.2,0.2,0.2,0.3l0.8,2.4h5.4L94.8,8.3z"/>
</svg>
